<svg width="20" height="20" viewBox="0 0 20 20" fill="none" xmlns="http://www.w3.org/2000/svg">
<path d="M12.5 5V2.5C12.5 1.91877 12.5 1.62815 12.4361 1.38971C12.2627 0.742667 11.7573 0.237265 11.1103 0.0638891C10.8718 0 10.5812 0 10 0C9.41877 0 9.12815 0 8.88971 0.0638891C8.24267 0.237265 7.73727 0.742667 7.56389 1.38971C7.5 1.62815 7.5 1.91877 7.5 2.5V5C7.5 6.17851 7.5 6.76777 7.13388 7.13388C6.76777 7.5 6.17851 7.5 5 7.5L2.5 7.5C1.91877 7.5 1.62815 7.5 1.38971 7.56389C0.742667 7.73727 0.237265 8.24267 0.0638893 8.88971C0 9.12815 0 9.41877 0 10C0 10.5812 0 10.8718 0.0638892 11.1103C0.237265 11.7573 0.742667 12.2627 1.38971 12.4361C1.62815 12.5 1.91877 12.5 2.5 12.5H5C6.17851 12.5 6.76777 12.5 7.13388 12.8661C7.5 13.2322 7.5 13.8215 7.5 15V17.5C7.5 18.0812 7.5 18.3718 7.56389 18.6103C7.73727 19.2573 8.24267 19.7627 8.88971 19.9361C9.12815 20 9.41877 20 10 20C10.5812 20 10.8718 20 11.1103 19.9361C11.7573 19.7627 12.2627 19.2573 12.4361 18.6103C12.5 18.3718 12.5 18.0812 12.5 17.5V15C12.5 13.8215 12.5 13.2322 12.8661 12.8661C13.2322 12.5 13.8215 12.5 15 12.5H17.5C18.0812 12.5 18.3718 12.5 18.6103 12.4361C19.2573 12.2627 19.7627 11.7573 19.9361 11.1103C20 10.8718 20 10.5812 20 10C20 9.41877 20 9.12815 19.9361 8.88971C19.7627 8.24267 19.2573 7.73727 18.6103 7.56389C18.3718 7.5 18.0812 7.5 17.5 7.5H15C13.8215 7.5 13.2322 7.5 12.8661 7.13388C12.5 6.76777 12.5 6.17851 12.5 5Z" fill="#FAF9FB"/>
</svg>
