<svg width="20" height="20" viewBox="0 0 20 20" fill="none" xmlns="http://www.w3.org/2000/svg">
<path d="M18.3334 9.99996C18.3334 5.39758 14.6024 1.66663 10.0001 1.66663C5.39771 1.66663 1.66675 5.39758 1.66675 9.99996C1.66675 14.6023 5.39771 18.3333 10.0001 18.3333C14.6024 18.3333 18.3334 14.6023 18.3334 9.99996Z" stroke="#6E6A7C" stroke-width="1.5"/>
<path d="M10.3344 6.91501L12.7677 6.10392C13.5062 5.85774 13.8755 5.73465 14.0704 5.92958C14.2653 6.1245 14.1423 6.49377 13.896 7.2323L13.0849 9.66554C12.6654 10.924 12.4557 11.5533 12.0044 12.0045C11.5532 12.4558 10.9239 12.6655 9.66542 13.085L7.23218 13.8961C6.49364 14.1424 6.12438 14.2655 5.92945 14.0705C5.73453 13.8756 5.85762 13.5063 6.10379 12.7678L6.91489 10.3345C7.33439 9.07604 7.54414 8.44679 7.9954 7.99552C8.44667 7.54426 9.07592 7.33451 10.3344 6.91501Z" stroke="#6E6A7C" stroke-width="1.5" stroke-linecap="round" stroke-linejoin="round"/>
<path d="M9.99996 10L9.99463 10.0053" stroke="#6E6A7C" stroke-width="2" stroke-linecap="round" stroke-linejoin="round"/>
</svg>
