<svg width="20" height="20" viewBox="0 0 20 20" fill="none" xmlns="http://www.w3.org/2000/svg">
<path d="M3.33337 11.6667H7.01762C7.7927 11.6667 8.18024 11.6667 8.28347 11.9001C8.38671 12.1336 8.123 12.4136 7.59559 12.9737L4.56413 16.193C4.03672 16.7531 3.77302 17.0331 3.87625 17.2666C3.97948 17.5 4.36702 17.5 5.14211 17.5H8.33337" stroke="#494949" stroke-width="1.5" stroke-linecap="round" stroke-linejoin="round"/>
<path d="M3.33337 7.5L5.08802 3.58773C5.41325 2.86258 5.57586 2.5 5.83337 2.5C6.09089 2.5 6.2535 2.86258 6.57873 3.58773L8.33337 7.5" stroke="#494949" stroke-width="1.5" stroke-linecap="round" stroke-linejoin="round"/>
<path d="M14.5833 16.6667V3.33333M14.5833 16.6667C13.9998 16.6667 12.9096 15.0047 12.5 14.5833M14.5833 16.6667C15.1668 16.6667 16.2571 15.0047 16.6667 14.5833" stroke="#494949" stroke-width="1.5" stroke-linecap="round" stroke-linejoin="round"/>
</svg>
