<svg width="32" height="32" viewBox="0 0 32 32" fill="none" xmlns="http://www.w3.org/2000/svg">
<path d="M22.5356 8.17166C24 9.67664 24 12.0989 24 16.9433V19.0567C24 23.9011 24 26.3233 22.5356 27.8284C21.0711 29.3333 18.714 29.3333 14 29.3333C9.28596 29.3333 6.92893 29.3333 5.46447 27.8284C4 26.3233 4 23.9011 4 19.0567V16.9433C4 12.0989 4 9.67664 5.46447 8.17166C6.92893 6.66667 9.28596 6.66667 14 6.66667C18.714 6.66667 21.0711 6.66667 22.5356 8.17166Z" stroke="#261A2B" stroke-width="1.5" stroke-linecap="round" stroke-linejoin="round"/>
<path d="M10 7.33333V13.8257C10 15.0728 10 15.6963 10.3864 15.9195C11.1347 16.3517 12.5384 14.9097 13.205 14.4756C13.5916 14.2237 13.7849 14.0979 14 14.0979C14.2151 14.0979 14.4084 14.2237 14.7949 14.4756C15.4616 14.9097 16.8652 16.3517 17.6136 15.9195C18 15.6963 18 15.0728 18 13.8257V7.33333" stroke="#261A2B" stroke-width="1.5" stroke-linecap="round" stroke-linejoin="round"/>
<path d="M12 2.66667H14.6667C20.952 2.66667 24.0948 2.66667 26.0473 4.6193C28 6.57191 28 9.71461 28 16V24" stroke="#261A2B" stroke-width="1.5" stroke-linecap="round" stroke-linejoin="round"/>
</svg>
