<svg width="32" height="32" viewBox="0 0 32 32" fill="none" xmlns="http://www.w3.org/2000/svg">
<path d="M22.5356 8.17161C24 9.6766 24 12.0988 24 16.9433V19.0566C24 23.901 24 26.3233 22.5356 27.8284C21.0711 29.3333 18.714 29.3333 14 29.3333C9.28596 29.3333 6.92893 29.3333 5.46447 27.8284C4 26.3233 4 23.901 4 19.0566V16.9433C4 12.0988 4 9.6766 5.46447 8.17161C6.92893 6.66663 9.28596 6.66663 14 6.66663C18.714 6.66663 21.0711 6.66663 22.5356 8.17161Z" fill="#824892" stroke="#824892" stroke-width="1.5" stroke-linecap="round" stroke-linejoin="round"/>
<path d="M10 7.33337V13.8258C10 15.0728 10 15.6963 10.3864 15.9195C11.1347 16.3518 12.5384 14.9098 13.205 14.4756C13.5916 14.2238 13.7849 14.0979 14 14.0979C14.2151 14.0979 14.4084 14.2238 14.7949 14.4756C15.4616 14.9098 16.8652 16.3518 17.6136 15.9195C18 15.6963 18 15.0728 18 13.8258V7.33337" stroke="#FAF9FB" stroke-width="1.5" stroke-linecap="round" stroke-linejoin="round"/>
<path d="M12 2.66663H14.6667C20.952 2.66663 24.0948 2.66663 26.0473 4.61925C28 6.57187 28 9.71456 28 16V24" stroke="#824892" stroke-width="1.5" stroke-linecap="round" stroke-linejoin="round"/>
</svg>
