<svg width="32" height="32" viewBox="0 0 32 32" fill="none" xmlns="http://www.w3.org/2000/svg">
<path d="M26 7.33334L25.1737 20.7001C24.9625 24.1152 24.8571 25.8228 24.0011 27.0505C23.5777 27.6575 23.0329 28.1697 22.4009 28.5547C21.1228 29.3333 19.412 29.3333 15.9903 29.3333C12.5642 29.3333 10.8511 29.3333 9.57207 28.5532C8.93973 28.1676 8.39467 27.6544 7.97157 27.0464C7.11584 25.8168 7.0126 24.1068 6.80615 20.6869L6 7.33334" stroke="#FF222E" stroke-width="1.5" stroke-linecap="round"/>
<path d="M4 7.33332H28M21.4076 7.33332L20.4975 5.45563C19.8928 4.20834 19.5904 3.58468 19.0689 3.19574C18.9533 3.10946 18.8308 3.03271 18.7027 2.96626C18.1252 2.66666 17.4321 2.66666 16.046 2.66666C14.6251 2.66666 13.9147 2.66666 13.3276 2.97882C13.1975 3.048 13.0733 3.12786 12.9564 3.21755C12.4289 3.62226 12.1342 4.26872 11.5448 5.56167L10.7372 7.33332" stroke="#FF222E" stroke-width="1.5" stroke-linecap="round"/>
<path d="M12.6665 22V14" stroke="#FF222E" stroke-width="1.5" stroke-linecap="round"/>
<path d="M19.3335 22V14" stroke="#FF222E" stroke-width="1.5" stroke-linecap="round"/>
</svg>
