<svg width="20" height="20" viewBox="0 0 20 20" fill="none" xmlns="http://www.w3.org/2000/svg">
<path d="M16.6667 7.49996C16.004 4.17875 12.9274 1.66663 9.23277 1.66663C5.0546 1.66663 1.66669 4.8793 1.66669 8.84163C1.66669 10.7455 2.44851 12.4753 3.72381 13.759C4.0046 14.0416 4.19206 14.4278 4.1164 14.8252C3.99154 15.475 3.70857 16.0812 3.29423 16.5864C4.38438 16.7874 5.51791 16.6064 6.49003 16.0939C6.83368 15.9128 7.00549 15.8222 7.12674 15.8038C7.21162 15.791 7.32218 15.803 7.50002 15.8335" stroke="#261A2B" stroke-width="1.5" stroke-linecap="round" stroke-linejoin="round"/>
<path d="M9.16669 13.5514C9.16669 15.9728 11.219 17.9361 13.75 17.9361C14.0476 17.9365 14.3444 17.909 14.6367 17.8541C14.8471 17.8145 14.9524 17.7948 15.0258 17.806C15.0992 17.8172 15.2034 17.8726 15.4115 17.9833C16.0004 18.2965 16.687 18.407 17.3474 18.2842C17.0964 17.9755 16.925 17.6051 16.8494 17.208C16.8035 16.9651 16.9171 16.7291 17.0872 16.5564C17.8598 15.7719 18.3334 14.7148 18.3334 13.5514C18.3334 11.13 16.281 9.16663 13.75 9.16663C11.219 9.16663 9.16669 11.13 9.16669 13.5514Z" stroke="#261A2B" stroke-width="1.5" stroke-linejoin="round"/>
</svg>
