<svg width="20" height="20" viewBox="0 0 20 20" fill="none" xmlns="http://www.w3.org/2000/svg">
<path d="M16.6666 7.49996C16.004 4.17875 12.9273 1.66663 9.23271 1.66663C5.05453 1.66663 1.66663 4.8793 1.66663 8.84163C1.66663 10.7455 2.44845 12.4753 3.72375 13.759C4.00453 14.0416 4.192 14.4278 4.11634 14.8252C3.99148 15.475 3.70851 16.0812 3.29417 16.5864C4.38432 16.7874 5.51785 16.6064 6.48997 16.0939C6.83362 15.9128 7.00543 15.8222 7.12668 15.8038C7.21156 15.791 7.32212 15.803 7.49996 15.8335" stroke="#FAF9FB" stroke-width="1.5" stroke-linecap="round" stroke-linejoin="round"/>
<path d="M9.16675 13.5514C9.16675 15.9728 11.2191 17.9361 13.7501 17.9361C14.0477 17.9365 14.3444 17.909 14.6367 17.8541C14.8472 17.8145 14.9524 17.7948 15.0258 17.806C15.0992 17.8172 15.2034 17.8726 15.4116 17.9833C16.0004 18.2965 16.6871 18.407 17.3475 18.2842C17.0965 17.9755 16.9251 17.6051 16.8494 17.208C16.8036 16.9651 16.9172 16.7291 17.0872 16.5564C17.8598 15.7719 18.3334 14.7148 18.3334 13.5514C18.3334 11.13 16.2811 9.16663 13.7501 9.16663C11.2191 9.16663 9.16675 11.13 9.16675 13.5514Z" stroke="#FAF9FB" stroke-width="1.5" stroke-linejoin="round"/>
</svg>
