<svg width="32" height="32" viewBox="0 0 32 32" fill="none" xmlns="http://www.w3.org/2000/svg">
<path d="M4 21.3333L9.95956 15.3737C10.4123 14.9211 11.0264 14.6667 11.6667 14.6667C12.307 14.6667 12.921 14.9211 13.3737 15.3737L18.6667 20.6667M18.6667 20.6667L20.6667 22.6667M18.6667 20.6667L21.2929 18.0404C21.7456 17.5877 22.3597 17.3333 23 17.3333C23.6403 17.3333 24.2544 17.5877 24.7071 18.0404L28 21.3333" stroke="#834496" stroke-width="1.5" stroke-linecap="round" stroke-linejoin="round"/>
<path d="M15.9999 3.33333C10.3603 3.33333 7.54045 3.33333 5.67027 4.93062C5.40469 5.15743 5.15736 5.40477 4.93055 5.67034C3.33325 7.54053 3.33325 10.3604 3.33325 16C3.33325 21.6396 3.33325 24.4595 4.93055 26.3296C5.15736 26.5952 5.40469 26.8425 5.67027 27.0693C7.54045 28.6667 10.3603 28.6667 15.9999 28.6667C21.6395 28.6667 24.4594 28.6667 26.3295 27.0693C26.5951 26.8425 26.8425 26.5952 27.0693 26.3296C28.6666 24.4595 28.6666 21.6396 28.6666 16" stroke="#834496" stroke-width="1.5" stroke-linecap="round" stroke-linejoin="round"/>
<path d="M28.6666 7.99999H23.9999M23.9999 7.99999H19.3333M23.9999 7.99999V3.33333M23.9999 7.99999V12.6667" stroke="#834496" stroke-width="1.5" stroke-linecap="round" stroke-linejoin="round"/>
</svg>
