<svg width="32" height="32" viewBox="0 0 32 32" fill="none" xmlns="http://www.w3.org/2000/svg">
<path d="M28.4232 9.52187L27.7651 8.37973C27.2674 7.51596 27.0186 7.08408 26.5951 6.91185C26.1716 6.73964 25.6927 6.87553 24.735 7.14732L23.1081 7.60559C22.4966 7.7466 21.855 7.6666 21.2967 7.37973L20.8475 7.12057C20.3687 6.81392 20.0004 6.36179 19.7966 5.83033L19.3514 4.50049C19.0586 3.62047 18.9122 3.18045 18.5636 2.92877C18.2152 2.67709 17.7523 2.67709 16.8264 2.67709H15.3401C14.4143 2.67709 13.9514 2.67709 13.6028 2.92877C13.2544 3.18045 13.108 3.62047 12.8152 4.50049L12.37 5.83033C12.1661 6.36179 11.7978 6.81392 11.3191 7.12057L10.8699 7.37973C10.3116 7.6666 9.67004 7.7466 9.05856 7.60559L7.43158 7.14732C6.4738 6.87553 5.99492 6.73964 5.57148 6.91185C5.14804 7.08408 4.89918 7.51596 4.40145 8.37973L3.74334 9.52187C3.2768 10.3315 3.04352 10.7364 3.0888 11.1673C3.13406 11.5983 3.44636 11.9456 4.07093 12.6402L5.44565 14.1771C5.78165 14.6024 6.0202 15.3437 6.0202 16.0103C6.0202 16.6771 5.78173 17.4181 5.44569 17.8436L4.07093 19.3805C3.44636 20.0752 3.13408 20.4224 3.0888 20.8535C3.04352 21.2844 3.2768 21.6892 3.74334 22.4988L4.40144 23.6409C4.89916 24.5047 5.14804 24.9367 5.57148 25.1088C5.99492 25.2811 6.47381 25.1452 7.43161 24.8733L9.0585 24.4151C9.67009 24.274 10.3117 24.3541 10.8701 24.6411L11.3192 24.9003C11.7979 25.2069 12.1661 25.6589 12.3699 26.1904L12.8152 27.5204C13.108 28.4004 13.2544 28.8404 13.6028 29.0921C13.9514 29.3437 14.4143 29.3437 15.3401 29.3437H16.8264C17.7523 29.3437 18.2152 29.3437 18.5636 29.0921C18.9122 28.8404 19.0586 28.4004 19.3514 27.5204L19.7967 26.1904C20.0004 25.6589 20.3686 25.2069 20.8474 24.9003L21.2964 24.6411C21.8548 24.3541 22.4965 24.274 23.1081 24.4151L24.735 24.8733C25.6927 25.1452 26.1716 25.2811 26.5951 25.1088C27.0186 24.9367 27.2674 24.5047 27.7651 23.6409L28.4232 22.4988C28.8898 21.6892 29.123 21.2844 29.0778 20.8535C29.0324 20.4224 28.7202 20.0752 28.0956 19.3805L26.7208 17.8436C26.3848 17.4181 26.1463 16.6771 26.1463 16.0103C26.1463 15.3437 26.385 14.6024 26.7208 14.1771L28.0956 12.6402C28.7202 11.9456 29.0324 11.5983 29.0778 11.1673C29.123 10.7364 28.8898 10.3315 28.4232 9.52187Z" stroke="#261A2B" stroke-width="1.5" stroke-linecap="round"/>
<path d="M20.6927 16C20.6927 18.5773 18.6033 20.6667 16.026 20.6667C13.4487 20.6667 11.3594 18.5773 11.3594 16C11.3594 13.4227 13.4487 11.3333 16.026 11.3333C18.6033 11.3333 20.6927 13.4227 20.6927 16Z" stroke="#261A2B" stroke-width="1.5"/>
</svg>
