<svg width="32" height="32" viewBox="0 0 32 32" fill="none" xmlns="http://www.w3.org/2000/svg">
<path d="M26.6666 21.3333V10.6667C26.6666 6.89543 26.6666 5.00982 25.495 3.83825C24.3234 2.66667 22.4378 2.66667 18.6666 2.66667H13.3333C9.56201 2.66667 7.6764 2.66667 6.50483 3.83825C5.33325 5.00982 5.33325 6.89543 5.33325 10.6667V21.3333C5.33325 25.1045 5.33325 26.9901 6.50483 28.1617C7.6764 29.3333 9.56201 29.3333 13.3333 29.3333H18.6666C22.4378 29.3333 24.3234 29.3333 25.495 28.1617C26.6666 26.9901 26.6666 25.1045 26.6666 21.3333Z" stroke="#261A2B" stroke-width="1.5" stroke-linecap="round" stroke-linejoin="round"/>
<path d="M20.6666 2.66667H11.3333C11.3333 4.55229 11.3333 5.4951 11.919 6.08089C12.5048 6.66667 13.4477 6.66667 15.3333 6.66667H16.6666C18.5522 6.66667 19.495 6.66667 20.0809 6.08089C20.6666 5.4951 20.6666 4.55229 20.6666 2.66667Z" stroke="#261A2B" stroke-width="1.5" stroke-linecap="round" stroke-linejoin="round"/>
<path d="M10 14.6667L11.3333 16L14 12.6667" stroke="#261A2B" stroke-width="1.5" stroke-linecap="round" stroke-linejoin="round"/>
<path d="M17.3333 22.6667H21.3333M17.3333 14.6667H21.3333" stroke="#261A2B" stroke-width="1.5" stroke-linecap="round" stroke-linejoin="round"/>
<path d="M11.3203 22.4896H11.3336" stroke="#261A2B" stroke-width="2" stroke-linecap="round" stroke-linejoin="round"/>
</svg>
