<svg width="32" height="32" viewBox="0 0 32 32" fill="none" xmlns="http://www.w3.org/2000/svg">
<path d="M26.6668 21.3333V10.6667C26.6668 6.89543 26.6668 5.00982 25.4952 3.83825C24.3236 2.66667 22.438 2.66667 18.6668 2.66667H13.3335C9.56226 2.66667 7.67664 2.66667 6.50507 3.83825C5.3335 5.00982 5.3335 6.89543 5.3335 10.6667V21.3333C5.3335 25.1045 5.3335 26.9901 6.50507 28.1617C7.67664 29.3333 9.56226 29.3333 13.3335 29.3333H18.6668C22.438 29.3333 24.3236 29.3333 25.4952 28.1617C26.6668 26.9901 26.6668 25.1045 26.6668 21.3333Z" fill="#824892" stroke="#824892" stroke-linecap="round" stroke-linejoin="round"/>
<path d="M20.6668 2.66667H11.3335C11.3335 4.55229 11.3335 5.4951 11.9193 6.08089C12.5051 6.66667 13.4479 6.66667 15.3335 6.66667H16.6668C18.5524 6.66667 19.4952 6.66667 20.0811 6.08089C20.6668 5.4951 20.6668 4.55229 20.6668 2.66667Z" stroke="#FAF9FB" stroke-width="1.5" stroke-linecap="round" stroke-linejoin="round"/>
<path d="M10 14.6667L11.3333 16L14 12.6667" stroke="#FAF9FB" stroke-width="1.5" stroke-linecap="round" stroke-linejoin="round"/>
<path d="M17.3335 22.6667H21.3335M17.3335 14.6667H21.3335" stroke="#FAF9FB" stroke-width="1.5" stroke-linecap="round" stroke-linejoin="round"/>
<path d="M11.3203 22.4896H11.3336" stroke="#FAF9FB" stroke-width="2" stroke-linecap="round" stroke-linejoin="round"/>
</svg>
