<svg width="20" height="20" viewBox="0 0 20 20" fill="none" xmlns="http://www.w3.org/2000/svg">
<path d="M16.6666 13.3333V6.66663C16.6666 4.3096 16.6666 3.13109 15.9344 2.39886C15.2021 1.66663 14.0236 1.66663 11.6666 1.66663H8.33331C5.97629 1.66663 4.79778 1.66663 4.06555 2.39886C3.33331 3.13109 3.33331 4.3096 3.33331 6.66663V13.3333C3.33331 15.6903 3.33331 16.8688 4.06555 17.601C4.79778 18.3333 5.97629 18.3333 8.33331 18.3333H11.6666C14.0236 18.3333 15.2021 18.3333 15.9344 17.601C16.6666 16.8688 16.6666 15.6903 16.6666 13.3333Z" stroke="#261A2B" stroke-width="1.5" stroke-linecap="round" stroke-linejoin="round"/>
<path d="M12.9166 1.66663H7.08331C7.08331 2.84513 7.08331 3.43439 7.44943 3.80051C7.81555 4.16663 8.40481 4.16663 9.58331 4.16663H10.4166C11.5951 4.16663 12.1844 4.16663 12.5506 3.80051C12.9166 3.43439 12.9166 2.84513 12.9166 1.66663Z" stroke="#261A2B" stroke-width="1.5" stroke-linecap="round" stroke-linejoin="round"/>
<path d="M6.25 9.16663L7.08333 9.99996L8.75 7.91663" stroke="#261A2B" stroke-width="1.5" stroke-linecap="round" stroke-linejoin="round"/>
<path d="M10.8333 14.1666H13.3333M10.8333 9.16663H13.3333" stroke="#261A2B" stroke-width="1.5" stroke-linecap="round" stroke-linejoin="round"/>
<path d="M7.0752 14.056H7.08353" stroke="#261A2B" stroke-width="2" stroke-linecap="round" stroke-linejoin="round"/>
</svg>
