<svg width="20" height="20" viewBox="0 0 20 20" fill="none" xmlns="http://www.w3.org/2000/svg">
<path d="M16.6663 13.3333V6.66663C16.6663 4.3096 16.6663 3.13109 15.9341 2.39886C15.2018 1.66663 14.0233 1.66663 11.6663 1.66663H8.33301C5.97598 1.66663 4.79747 1.66663 4.06524 2.39886C3.33301 3.13109 3.33301 4.3096 3.33301 6.66663V13.3333C3.33301 15.6903 3.33301 16.8688 4.06524 17.601C4.79747 18.3333 5.97598 18.3333 8.33301 18.3333H11.6663C14.0233 18.3333 15.2018 18.3333 15.9341 17.601C16.6663 16.8688 16.6663 15.6903 16.6663 13.3333Z" stroke="#FAF9FB" stroke-width="1.5" stroke-linecap="round" stroke-linejoin="round"/>
<path d="M12.9163 1.66663H7.08301C7.08301 2.84513 7.08301 3.43439 7.44912 3.80051C7.81524 4.16663 8.40451 4.16663 9.58301 4.16663H10.4163C11.5948 4.16663 12.1841 4.16663 12.5503 3.80051C12.9163 3.43439 12.9163 2.84513 12.9163 1.66663Z" stroke="#FAF9FB" stroke-width="1.5" stroke-linecap="round" stroke-linejoin="round"/>
<path d="M6.25 9.16663L7.08333 9.99996L8.75 7.91663" stroke="#FAF9FB" stroke-width="1.5" stroke-linecap="round" stroke-linejoin="round"/>
<path d="M10.833 14.1666H13.333M10.833 9.16663H13.333" stroke="#FAF9FB" stroke-width="1.5" stroke-linecap="round" stroke-linejoin="round"/>
<path d="M7.0752 14.056H7.08353" stroke="#FAF9FB" stroke-width="2" stroke-linecap="round" stroke-linejoin="round"/>
</svg>
