<svg width="123" height="103" viewBox="0 0 123 103" fill="none" xmlns="http://www.w3.org/2000/svg">
<g opacity="0.1">
<path d="M74.3125 43.5625C74.3125 29.4102 62.8397 17.9375 48.6875 17.9375C34.5352 17.9375 23.0625 29.4102 23.0625 43.5625C23.0625 57.7147 34.5352 69.1875 48.6875 69.1875C62.8397 69.1875 74.3125 57.7147 74.3125 43.5625Z" stroke="white" stroke-width="11.6038" stroke-linecap="round" stroke-linejoin="round"/>
<path d="M84.5625 105.062C84.5625 85.2493 68.5007 69.1875 48.6875 69.1875C28.8743 69.1875 12.8125 85.2493 12.8125 105.062" stroke="white" stroke-width="11.6038" stroke-linecap="round" stroke-linejoin="round"/>
<path d="M89.6875 50.4615C89.6875 45.2361 94.2764 41 99.9375 41C105.599 41 110.188 45.2361 110.188 50.4615C110.188 52.3452 109.591 54.1 108.563 55.5745C105.5 59.9686 99.9375 61.5969 99.9375 66.8223V69.1875M99.8873 82H99.9334" stroke="white" stroke-width="11.6038" stroke-linecap="round" stroke-linejoin="round"/>
</g>
</svg>
