<svg width="32" height="32" viewBox="0 0 32 32" fill="none" xmlns="http://www.w3.org/2000/svg">
<path d="M17.3332 9.33333C17.3332 12.2789 14.9453 14.6667 11.9998 14.6667C9.05432 14.6667 6.6665 12.2789 6.6665 9.33333C6.6665 6.38781 9.05432 4 11.9998 4C14.9453 4 17.3332 6.38781 17.3332 9.33333Z" fill="#824892" stroke="#824892" stroke-width="1.5"/>
<path d="M20 14.6667C22.9455 14.6667 25.3333 12.2789 25.3333 9.33333C25.3333 6.38781 22.9455 4 20 4" stroke="#824892" stroke-width="1.5" stroke-linecap="round" stroke-linejoin="round"/>
<path d="M14.6665 18.6667H9.33317C5.65128 18.6667 2.6665 21.6515 2.6665 25.3333C2.6665 26.8061 3.86041 28 5.33317 28H18.6665C20.1393 28 21.3332 26.8061 21.3332 25.3333C21.3332 21.6515 18.3484 18.6667 14.6665 18.6667Z" fill="#824892" stroke="#824892" stroke-width="1.5" stroke-linejoin="round"/>
<path d="M22.6665 18.6667C26.3484 18.6667 29.3332 21.6515 29.3332 25.3333C29.3332 26.8061 28.1393 28 26.6665 28H24.6665" stroke="#824892" stroke-width="1.5" stroke-linecap="round" stroke-linejoin="round"/>
</svg>
