<svg width="32" height="32" viewBox="0 0 32 32" fill="none" xmlns="http://www.w3.org/2000/svg">
<path d="M17.3334 9.33333C17.3334 12.2789 14.9455 14.6667 12.0001 14.6667C9.05456 14.6667 6.66675 12.2789 6.66675 9.33333C6.66675 6.38781 9.05456 4 12.0001 4C14.9455 4 17.3334 6.38781 17.3334 9.33333Z" stroke="#261A2B" stroke-width="1.5"/>
<path d="M20 14.6667C22.9455 14.6667 25.3333 12.2789 25.3333 9.33333C25.3333 6.38781 22.9455 4 20 4" stroke="#261A2B" stroke-width="1.5" stroke-linecap="round" stroke-linejoin="round"/>
<path d="M14.6667 18.6667H9.33341C5.65152 18.6667 2.66675 21.6515 2.66675 25.3333C2.66675 26.8061 3.86065 28 5.33341 28H18.6667C20.1395 28 21.3334 26.8061 21.3334 25.3333C21.3334 21.6515 18.3486 18.6667 14.6667 18.6667Z" stroke="#261A2B" stroke-width="1.5" stroke-linejoin="round"/>
<path d="M22.6667 18.6667C26.3486 18.6667 29.3334 21.6515 29.3334 25.3333C29.3334 26.8061 28.1395 28 26.6667 28H24.6667" stroke="#261A2B" stroke-width="1.5" stroke-linecap="round" stroke-linejoin="round"/>
</svg>
