<svg width="20" height="20" viewBox="0 0 20 20" fill="none" xmlns="http://www.w3.org/2000/svg">
<path d="M12.9166 9.16667C12.9166 7.55583 11.6108 6.25 9.99992 6.25C8.38909 6.25 7.08325 7.55583 7.08325 9.16667C7.08325 10.7775 8.38909 12.0833 9.99992 12.0833C11.6108 12.0833 12.9166 10.7775 12.9166 9.16667Z" stroke="#24252C" stroke-width="1.5" stroke-linecap="round" stroke-linejoin="round"/>
<path d="M12.9022 9.45825C13.1705 9.53958 13.4551 9.58333 13.7499 9.58333C15.3607 9.58333 16.6666 8.2775 16.6666 6.66667C16.6666 5.05583 15.3607 3.75 13.7499 3.75C12.2375 3.75 10.9939 4.90117 10.8477 6.37511" stroke="#24252C" stroke-width="1.5" stroke-linecap="round" stroke-linejoin="round"/>
<path d="M9.15217 6.37511C9.00592 4.90117 7.76235 3.75 6.24992 3.75C4.63909 3.75 3.33325 5.05583 3.33325 6.66667C3.33325 8.2775 4.63909 9.58333 6.24992 9.58333C6.54476 9.58333 6.82938 9.53958 7.09764 9.45825" stroke="#24252C" stroke-width="1.5" stroke-linecap="round" stroke-linejoin="round"/>
<path d="M18.3333 13.75C18.3333 11.4488 16.2813 9.58331 13.75 9.58331" stroke="#24252C" stroke-width="1.5" stroke-linecap="round" stroke-linejoin="round"/>
<path d="M14.5834 16.25C14.5834 13.9488 12.5314 12.0833 10.0001 12.0833C7.46877 12.0833 5.41675 13.9488 5.41675 16.25" stroke="#24252C" stroke-width="1.5" stroke-linecap="round" stroke-linejoin="round"/>
<path d="M6.25008 9.58331C3.71877 9.58331 1.66675 11.4488 1.66675 13.75" stroke="#24252C" stroke-width="1.5" stroke-linecap="round" stroke-linejoin="round"/>
</svg>
