<svg width="20" height="20" viewBox="0 0 20 20" fill="none" xmlns="http://www.w3.org/2000/svg">
<path d="M9.17216 17.5001H8.00463C5.01692 17.5001 3.52307 17.5001 2.59491 16.5543C1.66675 15.6085 1.66675 14.0863 1.66675 11.0418C1.66675 7.99729 1.66675 6.47503 2.59491 5.52923C3.52307 4.58343 5.01692 4.58344 8.00463 4.58344H11.1736C14.1612 4.58344 15.6552 4.58343 16.5833 5.52923C17.2974 6.25693 17.4621 7.32585 17.5001 9.16675" stroke="#24252C" stroke-width="1.5" stroke-linecap="round"/>
<path d="M16.6806 16.6861L18.3332 18.3334M17.544 14.6054C17.544 12.9824 16.2283 11.6667 14.6053 11.6667C12.9822 11.6667 11.6665 12.9824 11.6665 14.6054C11.6665 16.2285 12.9822 17.5443 14.6053 17.5443C16.2283 17.5443 17.544 16.2285 17.544 14.6054Z" stroke="#24252C" stroke-width="1.5" stroke-linecap="round" stroke-linejoin="round"/>
<path d="M13.3333 4.58335L13.2505 4.3258C12.838 3.04243 12.6317 2.40075 12.1406 2.03371C11.6496 1.66669 10.9974 1.66669 9.69287 1.66669H9.47362C8.16912 1.66669 7.51688 1.66669 7.02584 2.03371C6.5348 2.40075 6.32854 3.04243 5.91604 4.3258L5.83325 4.58335" stroke="#24252C" stroke-width="1.5"/>
</svg>
