<svg width="20" height="20" viewBox="0 0 20 20" fill="none" xmlns="http://www.w3.org/2000/svg">
<path d="M15 6.66669C16.3807 6.66669 17.5 5.5474 17.5 4.16669C17.5 2.78598 16.3807 1.66669 15 1.66669C13.6193 1.66669 12.5 2.78598 12.5 4.16669C12.5 5.5474 13.6193 6.66669 15 6.66669Z" stroke="#24252C" stroke-width="1.5" stroke-linecap="round" stroke-linejoin="round"/>
<path d="M5 18.3333C6.38071 18.3333 7.5 17.214 7.5 15.8333C7.5 14.4526 6.38071 13.3333 5 13.3333C3.61929 13.3333 2.5 14.4526 2.5 15.8333C2.5 17.214 3.61929 18.3333 5 18.3333Z" stroke="#24252C" stroke-width="1.5" stroke-linecap="round" stroke-linejoin="round"/>
<path d="M10.0001 4.16669H7.08341C5.47258 4.16669 4.16675 5.47252 4.16675 7.08335C4.16675 8.69419 5.47258 10 7.08341 10H12.9167C14.5276 10 15.8334 11.3059 15.8334 12.9167C15.8334 14.5275 14.5276 15.8334 12.9167 15.8334H10.0001" stroke="#24252C" stroke-width="1.5" stroke-linecap="round" stroke-linejoin="round"/>
</svg>
