<svg width="24" height="24" viewBox="0 0 24 24" fill="none" xmlns="http://www.w3.org/2000/svg">
<path d="M2 6.45312L8.91302 10.3701C11.4616 11.8141 12.5384 11.8141 15.087 10.3701L22 6.45312" stroke="white" stroke-width="1.5" stroke-linejoin="round"/>
<path d="M2.01577 13.9287C2.08114 16.9943 2.11383 18.527 3.24496 19.6625C4.37608 20.7979 5.95033 20.8374 9.09883 20.9165C11.0393 20.9653 12.9607 20.9653 14.9012 20.9165C18.0497 20.8374 19.6239 20.7979 20.7551 19.6625C21.8862 18.527 21.9189 16.9943 21.9842 13.9287C22.0053 12.943 22.0053 11.9632 21.9842 10.9775C21.9189 7.91199 21.8862 6.37922 20.7551 5.24379C19.6239 4.10836 18.0497 4.06881 14.9012 3.9897C12.9607 3.94094 11.0393 3.94094 9.09882 3.98969C5.95033 4.06879 4.37608 4.10834 3.24495 5.24378C2.11382 6.37921 2.08114 7.91198 2.01576 10.9775C1.99474 11.9632 1.99475 12.943 2.01577 13.9287Z" stroke="white" stroke-width="1.5" stroke-linejoin="round"/>
</svg>
