<svg width="24" height="24" viewBox="0 0 24 24" fill="none" xmlns="http://www.w3.org/2000/svg">
<path d="M8.5 15H15.5M8.5 10H12" stroke="#824892" stroke-width="1.5" stroke-linecap="round" stroke-linejoin="round"/>
<path d="M21.9598 10.9705C21.9711 11.1458 21.98 11.3224 21.9866 11.4997C22.011 12.1624 22.0021 12.8357 21.9598 13.4906C21.6856 17.733 18.3536 21.1122 14.1706 21.3903C12.7435 21.4851 11.2536 21.4849 9.8294 21.3903C9.33896 21.3577 8.8044 21.2406 8.34401 21.051C7.83177 20.8401 7.5756 20.7345 7.44544 20.7506C7.31527 20.7666 7.1264 20.9058 6.74868 21.1844C6.08268 21.6755 5.24367 22.0282 3.99943 21.9979C3.37026 21.9826 3.05568 21.975 2.91484 21.7348C2.77401 21.4947 2.94941 21.1623 3.30021 20.4976C3.78674 19.5756 4.09501 18.5201 3.62791 17.6744C2.82343 16.4663 2.1401 15.0357 2.04024 13.4906C1.98659 12.6604 1.98659 11.8007 2.04024 10.9705C2.31441 6.72808 5.64639 3.34884 9.8294 3.07078C10.3789 3.03425 10.4383 3.01179 11 3.00342" stroke="#824892" stroke-width="1.5" stroke-linecap="round" stroke-linejoin="round"/>
<path d="M15.015 2.38661C16.0876 1.74692 17.0238 2.00471 17.5863 2.41534C17.8169 2.58371 17.9322 2.66789 18 2.66789C18.0678 2.66789 18.1831 2.58371 18.4137 2.41534C18.9762 2.00471 19.9124 1.74692 20.985 2.38661C22.3928 3.22614 22.7113 5.99577 19.4642 8.33241C18.8457 8.77747 18.5365 9 18 9C17.4635 9 17.1543 8.77747 16.5358 8.33241C13.2887 5.99577 13.6072 3.22614 15.015 2.38661Z" stroke="#824892" stroke-width="1.5" stroke-linecap="round"/>
</svg>
