<svg width="40" height="40" viewBox="0 0 40 40" fill="none" xmlns="http://www.w3.org/2000/svg">
<path d="M21.1623 5.8335H18.8383C17.6473 5.8335 17.0518 5.8335 16.5178 6.02016C16.1916 6.13415 15.8852 6.29815 15.6095 6.50628C15.1579 6.8471 14.8276 7.34256 14.167 8.3335C13.8286 8.84103 13.3299 9.58911 13.1311 9.79801C12.6386 10.3156 11.9927 10.6613 11.2888 10.784C11.0047 10.8335 10.6997 10.8335 10.0898 10.8335C8.4563 10.8335 7.63959 10.8335 6.97177 11.0225C5.30122 11.4954 3.99555 12.8011 3.52265 14.4716C3.33362 15.1394 3.33362 15.9562 3.33362 17.5897V24.1668C3.33362 28.8808 3.33362 31.2378 4.79808 32.7023C6.26255 34.1668 8.61958 34.1668 13.3336 34.1668H26.667C31.381 34.1668 33.738 34.1668 35.2025 32.7023C36.667 31.2378 36.667 28.8808 36.667 24.1668V17.5897C36.667 15.9562 36.667 15.1394 36.478 14.4716C36.005 12.8011 34.6993 11.4954 33.0288 11.0225C32.361 10.8335 31.5443 10.8335 29.9108 10.8335C29.3008 10.8335 28.9958 10.8335 28.7118 10.784C28.0078 10.6613 27.362 10.3156 26.8695 9.79801C26.6707 9.5891 26.172 8.84101 25.8337 8.3335C25.173 7.34256 24.8427 6.8471 24.3912 6.50628C24.1153 6.29815 23.809 6.13415 23.4828 6.02016C22.9488 5.8335 22.3533 5.8335 21.1623 5.8335Z" stroke="#F3EBF4" stroke-width="1.5" stroke-linecap="round" stroke-linejoin="round"/>
<path d="M26.667 21.6667C26.667 25.3485 23.6822 28.3333 20.0003 28.3333C16.3184 28.3333 13.3336 25.3485 13.3336 21.6667C13.3336 17.9848 16.3184 15 20.0003 15C23.6822 15 26.667 17.9848 26.667 21.6667Z" stroke="#F3EBF4" stroke-width="1.5" stroke-linecap="round" stroke-linejoin="round"/>
<path d="M31.8754 15.8332H31.667M32.0837 15.8332C32.0837 16.0633 31.8972 16.2498 31.667 16.2498C31.4369 16.2498 31.2504 16.0633 31.2504 15.8332C31.2504 15.6031 31.4369 15.4165 31.667 15.4165C31.8972 15.4165 32.0837 15.6031 32.0837 15.8332Z" stroke="#F3EBF4" stroke-width="1.5" stroke-linecap="round"/>
</svg>
