<svg width="22" height="22" viewBox="0 0 22 22" fill="none" xmlns="http://www.w3.org/2000/svg">
<path d="M5.26734 15.8632C5.66177 16.4405 6.85883 17.6728 8.49168 17.9833M8.61428 20.75C7.58582 20.5806 0.75 18.3557 0.75 10.8426C0.75 3.81329 6.7519 0.75 10.7508 0.75C14.7496 0.75 20.75 3.81329 20.75 10.8426C20.75 18.3557 13.9142 20.5806 12.8857 20.75C12.8857 20.75 12.6767 17.3326 12.7987 16.7469C12.9206 16.1613 12.5052 15.2188 12.5052 15.2188C13.4762 14.8555 14.9543 14.3347 15.4501 12.9374C15.8348 11.8532 16.0768 10.2788 15.0008 8.7989C15.0008 8.7989 15.2818 6.40809 14.7496 6.31548C14.2175 6.22287 12.6498 7.26192 12.6498 7.26192C12.1932 7.13248 11.1743 6.88476 10.7518 6.92939C10.3292 6.88476 9.3068 7.13248 8.8502 7.26192C8.8502 7.26192 7.28249 6.22287 6.75036 6.31548C6.21823 6.40809 6.49917 8.7989 6.49917 8.7989C5.42316 10.2788 5.66516 11.8532 6.0499 12.9374C6.54575 14.3347 8.02384 14.8555 8.9948 15.2188C8.9948 15.2188 8.57944 16.1613 8.70135 16.7469C8.8233 17.3326 8.61428 20.75 8.61428 20.75Z" stroke="#261A2B" stroke-width="1.5" stroke-linecap="round" stroke-linejoin="round"/>
</svg>
