<svg width="20" height="20" viewBox="0 0 20 20" fill="none" xmlns="http://www.w3.org/2000/svg">
<path d="M5.43114 14.2608C5.75983 14.7419 6.75738 15.7688 8.11809 16.0276M8.22025 18.3332C7.3632 18.192 1.66669 16.3379 1.66669 10.077C1.66669 4.21925 6.66827 1.6665 10.0007 1.6665C13.333 1.6665 18.3334 4.21925 18.3334 10.077C18.3334 16.3379 12.6369 18.192 11.7798 18.3332C11.7798 18.3332 11.6056 15.4853 11.7073 14.9973C11.8089 14.5093 11.4627 13.7238 11.4627 13.7238C12.2719 13.4211 13.5036 12.9871 13.9168 11.8227C14.2374 10.9192 14.439 9.60717 13.5424 8.37392C13.5424 8.37392 13.7765 6.38158 13.333 6.3044C12.8896 6.22723 11.5832 7.0931 11.5832 7.0931C11.2027 6.98524 10.3536 6.7788 10.0015 6.816C9.64935 6.7788 8.79735 6.98524 8.41685 7.0931C8.41685 7.0931 7.11043 6.22723 6.66699 6.3044C6.22354 6.38158 6.45766 8.37392 6.45766 8.37392C5.56099 9.60717 5.76265 10.9192 6.08327 11.8227C6.49648 12.9871 7.72822 13.4211 8.53735 13.7238C8.53735 13.7238 8.19122 14.5093 8.29281 14.9973C8.39444 15.4853 8.22025 18.3332 8.22025 18.3332Z" stroke="#F3EBF4" stroke-width="1.5" stroke-linecap="round" stroke-linejoin="round"/>
</svg>
